<svg width="1920" height="94" viewBox="0 0 1920 94" fill="none" xmlns="http://www.w3.org/2000/svg">
<g clip-path="url(#clip0_366_2224)">
<path d="M1182.94 80.2266C1182.94 78.2266 1182.94 78.2266 1182.93 78.2266H1182.92H1182.9H1182.87H1182.84H1182.79H1182.74H1182.68H1182.61H1182.54H1182.45H1182.36H1182.26H1182.16H1182.04H1181.92H1181.79H1181.65H1181.51H1181.35H1181.19H1181.03H1180.85H1180.67H1180.48H1180.28H1180.08H1179.86H1179.64H1179.42H1179.18H1178.94H1178.69H1178.44H1178.17H1177.9H1177.63H1177.34H1177.05H1176.75H1176.45H1176.14H1175.82H1175.49H1175.16H1174.82H1174.47H1174.12H1173.76H1173.39H1173.01H1172.63H1172.25H1171.85H1171.45H1171.05H1170.63H1170.21H1169.78H1169.35H1168.91H1168.47H1168.01H1167.55H1167.09H1166.62H1166.14H1165.65H1165.16H1164.67H1164.16H1163.66H1163.14H1162.62H1162.09H1161.56H1161.02H1160.47H1159.92H1159.37H1158.8H1158.23H1157.66H1157.08H1156.49H1155.9H1155.3H1154.7H1154.09H1153.47H1152.85H1152.23H1151.59H1150.96H1150.31H1149.66H1149.01H1148.35H1147.69H1147.02H1146.34H1145.66H1144.97H1144.28H1143.58H1142.88H1142.18H1141.46H1140.75H1140.02H1139.29H1138.56H1137.82H1137.08H1136.33H1135.58H1134.82H1134.06H1133.29H1132.52H1131.74H1130.96H1130.17H1129.38H1128.59H1127.79H1126.98H1126.17H1125.35H1124.53H1123.71H1122.88H1122.05H1121.21H1120.37H1119.52H1118.67H1117.82H1116.96H1116.1H1115.23H1114.36H1113.48H1112.6H1111.71H1110.82H1109.93H1109.03H1108.13H1107.23H1106.32H1105.41H1104.49H1103.57H1102.64H1101.71H1100.78H1099.85H1098.9H1097.96H1097.01H1096.06H1095.11H1094.15H1093.19H1092.22H1091.25H1090.28H1089.3H1088.32H1087.34H1086.35H1085.36H1084.37H1083.37H1082.37H1081.37H1080.36H1079.35H1078.33H1077.32H1076.3H1075.28H1074.25H1073.22H1072.19H1071.15H1070.12H1069.07H1068.03H1066.98H1065.93H1064.88H1063.83H1062.77H1061.71H1060.64H1059.58H1058.51H1057.43H1056.36H1055.28H1054.2H1053.12H1052.04H1050.95H1049.86H1048.77H1047.67H1046.58H1045.48H1044.37H1043.27H1042.16H1041.06H1039.94H1038.83H1037.72H1036.6H1035.48H1034.36H1033.23H1032.11H1030.98H1029.85H1028.72H1027.59H1026.45H1025.31H1024.17H1023.03H1021.89H1020.75H1019.6H1018.45H1017.3H1016.15H1015H1013.84H1012.69H1011.53H1010.37H1009.21H1008.05H1006.88H1005.72H1004.55H1003.38H1002.22H1001.04H999.873H998.7H997.526H996.351H995.174H993.997H992.818H991.638H990.457H989.275H988.092H986.909H985.724H984.538H983.351H982.164H980.975H979.786H978.596H977.406H976.214H975.022H973.829H972.636H971.442H970.247H969.052H967.856H966.66H965.463H964.266H963.068H961.87H960.671H959.473H958.273H957.074H955.874H954.675H953.474H952.274H951.074H949.873H948.672H947.472H946.271H945.07H943.869H942.668H941.468H940.267H939.066H937.866H936.666H935.466H934.266H933.066H931.867H930.668H929.47H928.271H927.074H925.876H924.679H923.483H922.287H921.091H919.896H918.702H917.508H916.315H915.122H913.931H912.739H911.549H910.36H909.171H907.983H906.796H905.61H904.424H903.24H902.057H900.874H899.693H898.512H897.333H896.155H894.978H893.802H892.627H891.454H890.281H889.11H887.941H886.772H885.605H884.439H883.275H882.112H880.951H879.791H878.632H877.476H876.32H875.166H874.014H872.864H871.715H870.568H869.422H868.279H867.137H865.997H864.859H863.722H862.588H861.455H860.325H859.196H858.069H856.945H855.822H854.702H853.583H852.467H851.353H850.241H849.131H848.024H846.919H845.816H844.715H843.617H842.521H841.428H840.337H839.248H838.162H837.079H835.998H834.919H833.844H832.77H831.7H830.632H829.567H828.505H827.445H826.388H825.334H824.283H823.235H822.189H821.147H820.107H819.071H818.037H817.006H815.979H814.955H813.933H812.915H811.9H810.889H809.88H808.875H807.873H806.874H805.879H804.887H803.898H802.913H801.931H800.953H799.978H799.007H798.039H797.075H796.115H795.158H794.205H793.255H792.309H791.367H790.429H789.495H788.564H787.637H786.714H785.795H784.88H783.969H783.062H782.159H781.26H780.365H779.474H778.587H777.704H776.826H775.952H775.082H774.216H773.354H772.497H771.645H770.796H769.952H769.112H768.277H767.447H766.62H765.799H764.982H764.169H763.361H762.558H761.76H760.966H760.177H759.392H758.613H757.838H757.068H756.303H755.543H754.787H754.037H753.292H752.551H751.816H751.086H750.36H749.64H748.925H748.216H747.511H746.812H746.117H745.429H744.745H744.067H743.394H742.726H742.064H741.407H740.756H740.11H739.47H738.836H738.206H737.583H736.965H736.353H735.746H735.145H734.55H733.961H733.377H732.8H732.228H731.295L730.696 78.9406L719.732 92H699.026L667.712 51.6753L667.111 50.902H666.132H647.26L608.16 2H1312.73L1271.97 50.902H1252.19H1251.23L1250.63 51.648L1218.16 92H1195.05L1184.49 78.9677L1183.89 78.2266H1182.94V80.2266Z" fill="url(#paint0_linear_366_2224)" stroke="url(#paint1_linear_366_2224)" stroke-width="4"/>
<path d="M748 94C748 90.6863 750.686 88 754 88H1166C1169.31 88 1172 90.6863 1172 94H748Z" fill="#128EE8"/>
<path fill-rule="evenodd" clip-rule="evenodd" d="M1327.53 3H1919.17V63H1289L1289 53.4737L1327.53 3Z" fill="url(#paint2_linear_366_2224)"/>
<path fill-rule="evenodd" clip-rule="evenodd" d="M1342.45 23H1612V41H1330L1342.45 23Z" fill="url(#paint3_linear_366_2224)"/>
<path fill-rule="evenodd" clip-rule="evenodd" d="M1346 29H1384.82L1378.82 36.5H1340L1346 29ZM1467.16 29H1471.86L1466.27 36.2861H1461.57L1467.16 29ZM1413.05 29H1395.4L1389.81 36.2861H1407.46L1413.05 29ZM1423.63 29H1431.02H1436.68L1431.16 36.2861H1418.12L1423.63 29ZM1456.57 29H1447.16L1441.57 36.2861H1450.98L1456.57 29Z" fill="url(#paint4_linear_366_2224)"/>
<path d="M1301 41.6479L1329.74 4H1919.2" stroke="url(#paint5_linear_366_2224)" stroke-width="3" stroke-linecap="round"/>
<path d="M1291.35 63H1607.67L1613.43 73H1810.22L1814.37 67.3838L1889.55 67.8586" stroke="url(#paint6_linear_366_2224)" stroke-width="3" stroke-linecap="round"/>
<path d="M1310.61 52.1919L1377.5 52.5" stroke="#4F94E6" stroke-width="3" stroke-linecap="round"/>
<path d="M1400.75 52.1919L1456.25 52.5" stroke="#1C3559" stroke-width="3" stroke-linecap="round"/>
<path d="M1481.18 52.1919H1880.22" stroke="url(#paint7_linear_366_2224)" stroke-width="3" stroke-linecap="round"/>
<path fill-rule="evenodd" clip-rule="evenodd" d="M592.465 0H0.828308V60H631L631 50.4737L592.465 0Z" fill="url(#paint8_linear_366_2224)"/>
<path fill-rule="evenodd" clip-rule="evenodd" d="M577.553 20H308V38H590L577.553 20Z" fill="url(#paint9_linear_366_2224)"/>
<path d="M619 38.6479L590.256 1H0.797974" stroke="url(#paint10_linear_366_2224)" stroke-width="3" stroke-linecap="round"/>
<path d="M628.646 60H312.332L306.567 70H109.776L105.629 64.3838L30.4485 64.8586" stroke="url(#paint11_linear_366_2224)" stroke-width="3" stroke-linecap="round"/>
<path d="M609.389 49.1919L542.5 49.5" stroke="#4F94E6" stroke-width="3" stroke-linecap="round"/>
<path d="M519.25 49.1919L463.75 49.5" stroke="#1C3559" stroke-width="3" stroke-linecap="round"/>
<path d="M438.818 49.1919H39.7763" stroke="url(#paint12_linear_366_2224)" stroke-width="3" stroke-linecap="round"/>
<path fill-rule="evenodd" clip-rule="evenodd" d="M572.861 25H534.044L540.044 32.5H578.861L572.861 25ZM451.705 25H447L452.59 32.2861H457.295L451.705 25ZM505.814 25H523.458L529.048 32.2861H511.403L505.814 25ZM495.227 25H487.838H482.186L487.702 32.2861H500.743L495.227 25ZM462.291 25H471.702L477.291 32.2861H467.881L462.291 25Z" fill="url(#paint13_linear_366_2224)"/>
</g>
<defs>
<linearGradient id="paint0_linear_366_2224" x1="604" y1="0" x2="604" y2="94" gradientUnits="userSpaceOnUse">
<stop stop-color="#203F5D"/>
<stop offset="0.42393" stop-color="#264A74"/>
<stop offset="1" stop-color="#305B98"/>
</linearGradient>
<linearGradient id="paint1_linear_366_2224" x1="604" y1="0" x2="604" y2="94" gradientUnits="userSpaceOnUse">
<stop stop-color="#3685F4"/>
<stop offset="1" stop-color="#2C5489"/>
</linearGradient>
<linearGradient id="paint2_linear_366_2224" x1="1308.45" y1="62.074" x2="1919.17" y2="62.074" gradientUnits="userSpaceOnUse">
<stop stop-color="#3662A4"/>
<stop offset="1" stop-color="#0A101F"/>
</linearGradient>
<linearGradient id="paint3_linear_366_2224" x1="1365.51" y1="39.8666" x2="1612" y2="39.8666" gradientUnits="userSpaceOnUse">
<stop stop-color="#182E4F"/>
<stop offset="1" stop-color="#182C4E" stop-opacity="0.01"/>
</linearGradient>
<linearGradient id="paint4_linear_366_2224" x1="1468.5" y1="32.9999" x2="1466.67" y2="17.9618" gradientUnits="userSpaceOnUse">
<stop stop-color="#2D9FF1" stop-opacity="0.2"/>
<stop offset="1" stop-color="#5095E7"/>
</linearGradient>
<linearGradient id="paint5_linear_366_2224" x1="1277.52" y1="26.0443" x2="1320.69" y2="176.925" gradientUnits="userSpaceOnUse">
<stop stop-color="#4F94E6"/>
<stop offset="0.541217" stop-color="#437DCD"/>
<stop offset="1" stop-color="#0B1222"/>
</linearGradient>
<linearGradient id="paint6_linear_366_2224" x1="1359.75" y1="72.5423" x2="1364.31" y2="22.143" gradientUnits="userSpaceOnUse">
<stop stop-color="#4F94E6"/>
<stop offset="0.377625" stop-color="#437DCD"/>
<stop offset="1" stop-color="#0B1222"/>
</linearGradient>
<linearGradient id="paint7_linear_366_2224" x1="1526.81" y1="52.6461" x2="1526.88" y2="47.5659" gradientUnits="userSpaceOnUse">
<stop stop-color="#4F94E6"/>
<stop offset="0.377625" stop-color="#437DCD"/>
<stop offset="1" stop-color="#0B1222"/>
</linearGradient>
<linearGradient id="paint8_linear_366_2224" x1="611.548" y1="59.074" x2="0.828292" y2="59.074" gradientUnits="userSpaceOnUse">
<stop stop-color="#3662A4"/>
<stop offset="1" stop-color="#0A101F"/>
</linearGradient>
<linearGradient id="paint9_linear_366_2224" x1="554.486" y1="36.8666" x2="308" y2="36.8666" gradientUnits="userSpaceOnUse">
<stop stop-color="#182E4F"/>
<stop offset="1" stop-color="#182C4E" stop-opacity="0.01"/>
</linearGradient>
<linearGradient id="paint10_linear_366_2224" x1="642.484" y1="23.0443" x2="599.314" y2="173.925" gradientUnits="userSpaceOnUse">
<stop stop-color="#4F94E6"/>
<stop offset="0.541217" stop-color="#437DCD"/>
<stop offset="1" stop-color="#0B1222"/>
</linearGradient>
<linearGradient id="paint11_linear_366_2224" x1="560.251" y1="69.5423" x2="555.695" y2="19.143" gradientUnits="userSpaceOnUse">
<stop stop-color="#4F94E6"/>
<stop offset="0.377625" stop-color="#437DCD"/>
<stop offset="1" stop-color="#0B1222"/>
</linearGradient>
<linearGradient id="paint12_linear_366_2224" x1="393.193" y1="49.6461" x2="393.125" y2="44.5659" gradientUnits="userSpaceOnUse">
<stop stop-color="#4F94E6"/>
<stop offset="0.377625" stop-color="#437DCD"/>
<stop offset="1" stop-color="#0B1222"/>
</linearGradient>
<linearGradient id="paint13_linear_366_2224" x1="450.36" y1="28.9999" x2="452.196" y2="13.9618" gradientUnits="userSpaceOnUse">
<stop stop-color="#2D9FF1" stop-opacity="0.2"/>
<stop offset="1" stop-color="#4F94E6"/>
</linearGradient>
<clipPath id="clip0_366_2224">
<rect width="1920" height="94" fill="white"/>
</clipPath>
</defs>
</svg>
