<svg width="161" height="121" viewBox="0 0 161 121" fill="none" xmlns="http://www.w3.org/2000/svg">
<path opacity="0.4" fill-rule="evenodd" clip-rule="evenodd" d="M160.014 76.2576C152.772 53.5429 119.705 36.3852 80.0068 36.3852C40.309 36.3852 7.24189 53.5429 0 76.2576H160.014Z" fill="url(#paint0_linear_499_1210)"/>
<path fill-rule="evenodd" clip-rule="evenodd" d="M44.4421 9.34517V4.08482C44.4421 1.82884 46.271 0 48.527 0H61.5295C63.2184 0 64.8527 0.597937 66.1428 1.68783L71.5803 6.28155H102.702C104.394 6.28155 105.766 7.65318 105.766 9.34517V53.7225C105.766 55.4144 104.394 56.7861 102.702 56.7861H51.08C47.414 56.7861 44.4421 53.8142 44.4421 50.1482V11.3916V9.34517Z" fill="url(#paint1_linear_499_1210)"/>
<rect x="48.9597" y="19.3574" width="25.006" height="29.8106" rx="4" fill="url(#paint2_linear_499_1210)"/>
<path fill-rule="evenodd" clip-rule="evenodd" d="M50.3367 56.7213V56.7863H106.461C107.738 56.7863 108.773 55.7514 108.773 54.475V15.6551C108.773 14.3787 107.738 13.3438 106.461 13.3438H60.316C57.5545 13.3438 55.316 15.5823 55.316 18.3438V50.931C55.316 53.8671 53.1554 56.2985 50.3367 56.7213Z" fill="url(#paint3_linear_499_1210)"/>
<g filter="url(#filter0_d_499_1210)">
<path d="M86.5593 10.8984C86.5593 10.07 87.2309 9.39844 88.0593 9.39844H98.8898C99.7182 9.39844 100.39 10.07 100.39 10.8984V26.9774C100.39 28.0739 99.2518 28.7998 98.2575 28.3376L94.1069 26.4082C93.7059 26.2218 93.2432 26.2218 92.8422 26.4082L88.6916 28.3376C87.6974 28.7998 86.5593 28.0739 86.5593 26.9774V10.8984Z" fill="#82BDE2"/>
</g>
<g filter="url(#filter1_d_499_1210)">
<circle cx="107.252" cy="43.2452" r="11.5342" fill="#5FA0CE" fill-opacity="0.4" shape-rendering="crispEdges"/>
<circle cx="107.252" cy="43.2452" r="9.53424" stroke="#82BDE2" stroke-width="4" shape-rendering="crispEdges"/>
</g>
<path d="M114.928 48.8398L123.663 55.5019" stroke="#82BDE2" stroke-width="4"/>
<path d="M53.018 95.8876C52.244 95.9596 51.434 96.0136 50.57 96.0856V95.0416H53.198V93.6376H50.57V92.5756H48.986V93.6376H47.456C47.816 93.1156 48.176 92.5396 48.5 91.9276H53.36V90.4156H49.202C49.31 90.1456 49.4 89.8756 49.508 89.6056L47.816 89.3356C47.672 89.6956 47.546 90.0556 47.402 90.4156H44.99V91.9276H46.682C46.286 92.6116 45.89 93.1876 45.476 93.6556L45.836 95.0416H48.986V96.1936C47.816 96.2656 46.574 96.3196 45.26 96.3736L45.458 97.8496C46.682 97.7776 47.852 97.6876 48.986 97.6156V98.7496H50.57V97.4896L53.018 97.2736V95.8876ZM55.736 95.0596H57.68V98.7676H59.318V95.0596H61.046V93.5656H55.844V92.0176C57.752 91.8016 59.372 91.3876 60.686 90.8116L59.57 89.5516C58.382 90.1096 56.618 90.5056 54.278 90.7216V93.6916C54.242 95.2216 53.828 96.5536 53.072 97.6696L54.26 98.9116C55.016 97.7956 55.52 96.5176 55.736 95.0596ZM59.21 99.1636H47.006V106.112H48.734V105.482H57.482V106.112H59.21V99.1636ZM48.734 104.024V102.962H57.482V104.024H48.734ZM48.734 101.612V100.586H57.482V101.612H48.734ZM64.304 90.3076V91.9816H69.326V93.0616C69.29 94.0696 69.218 95.0056 69.11 95.9056H63.134V97.5616H68.804C68.588 98.5516 68.282 99.4516 67.904 100.28C67.022 102.008 65.348 103.448 62.864 104.582L63.818 106.112C66.302 105.05 68.102 103.538 69.218 101.576C69.812 100.442 70.262 99.1096 70.586 97.5616H71.702V103.7C71.702 105.104 72.368 105.824 73.7 105.824H76.58C77.336 105.824 77.894 105.644 78.254 105.302C78.65 104.942 78.938 103.808 79.082 101.918L77.48 101.396C77.408 102.764 77.264 103.592 77.066 103.844C76.886 104.096 76.616 104.222 76.256 104.222H74.222C73.664 104.222 73.394 103.916 73.394 103.34V97.5616H78.83V95.9056H70.856C70.964 95.0056 71.036 94.0696 71.072 93.0616V91.9816H77.408V90.3076H64.304ZM92.006 93.7456H94.328C94.256 95.9056 93.932 97.8136 93.338 99.4696C92.708 98.0656 92.186 96.4276 91.79 94.5556C91.862 94.3036 91.934 94.0336 92.006 93.7456ZM92.564 101.216C91.772 102.638 90.71 103.79 89.378 104.69L90.26 106.112C91.52 105.212 92.582 104.096 93.428 102.782C94.292 104.168 95.3 105.284 96.47 106.13L97.424 104.744C96.2 103.916 95.156 102.746 94.256 101.252C95.228 99.1816 95.768 96.6796 95.876 93.7456H96.92V92.1076H92.348C92.492 91.3696 92.6 90.5956 92.708 89.7676L91.034 89.4796C90.674 92.8276 89.99 95.4916 88.982 97.4716L90.062 98.8036C90.386 98.2636 90.674 97.6516 90.962 97.0036C91.412 98.5696 91.952 99.9736 92.564 101.216ZM84.032 97.8496C83.924 98.1736 83.798 98.5336 83.654 98.8936H81.116V100.352H83.006C82.664 101.036 82.268 101.738 81.836 102.494C82.664 102.818 83.456 103.124 84.194 103.43C83.222 103.934 82.052 104.33 80.702 104.654L81.494 106.058C83.276 105.59 84.77 104.978 85.958 104.204C86.948 104.654 87.794 105.086 88.496 105.518L89.414 104.186C88.73 103.826 88.01 103.466 87.272 103.142C88.1 102.314 88.676 101.36 89 100.28V98.8936H85.328C85.436 98.6056 85.526 98.3356 85.634 98.0476L84.032 97.8496ZM85.706 102.494C85.112 102.242 84.5 102.026 83.87 101.81C84.158 101.342 84.428 100.856 84.68 100.352H87.47C87.074 101.144 86.498 101.864 85.706 102.494ZM82.79 89.7676L81.44 90.2176C81.854 90.8836 82.25 91.6576 82.61 92.5216L83.834 91.9636C83.528 91.1716 83.186 90.4516 82.79 89.7676ZM87.956 89.7496C87.632 90.4696 87.182 91.2076 86.606 91.9636L87.794 92.5756C88.352 91.8376 88.802 91.0816 89.162 90.3256L87.956 89.7496ZM81.152 92.8276V94.3216H83.42C82.88 95.1496 81.998 95.9236 80.738 96.6436L81.584 98.0296C82.97 97.0576 83.96 95.9236 84.554 94.6276V97.6696H86.12V95.6536C86.678 96.0136 87.344 96.5176 88.136 97.1476L89.036 95.7976C88.046 95.2756 87.074 94.8076 86.12 94.4116V94.3216H89.252V92.8276H86.12V89.5156H84.554V92.8276H81.152ZM100.97 105.95C102.086 105.95 102.662 105.356 102.662 104.168V99.1816C103.166 98.9476 103.67 98.6956 104.192 98.4436V96.7696C103.688 97.0396 103.166 97.2916 102.662 97.5256V94.4476H104.246V92.8096H102.662V89.5516H101.006V92.8096H98.99V94.4476H101.006V98.1736C100.232 98.4436 99.458 98.6776 98.666 98.8576L99.098 100.55C99.728 100.334 100.358 100.118 101.006 99.8836V103.754C101.006 104.222 100.79 104.456 100.394 104.456C99.962 104.456 99.53 104.402 99.08 104.33L99.44 105.95H100.97ZM106.568 98.1376H109.808V99.9916H106.928V106.112H108.512V105.338H112.778V106.112H114.362V99.9916H111.464V98.1376H115.172V96.5716H111.464V94.7716H114.74V90.1096H105.002V95.9776C104.984 99.6316 104.372 102.62 103.166 104.942L104.498 106.13C105.65 103.826 106.334 101.162 106.568 98.1376ZM109.808 94.7716V96.5716H106.64C106.64 96.3736 106.658 96.1756 106.658 95.9776V94.7716H109.808ZM108.512 103.826V101.504H112.778V103.826H108.512ZM113.084 91.6756V93.2416H106.658V91.6756H113.084Z" fill="white"/>
<defs>
<filter id="filter0_d_499_1210" x="77.5593" y="0.398438" width="31.8304" height="37.0807" filterUnits="userSpaceOnUse" color-interpolation-filters="sRGB">
<feFlood flood-opacity="0" result="BackgroundImageFix"/>
<feColorMatrix in="SourceAlpha" type="matrix" values="0 0 0 0 0 0 0 0 0 0 0 0 0 0 0 0 0 0 127 0" result="hardAlpha"/>
<feOffset/>
<feGaussianBlur stdDeviation="4.5"/>
<feComposite in2="hardAlpha" operator="out"/>
<feColorMatrix type="matrix" values="0 0 0 0 0.455642 0 0 0 0 0.731551 0 0 0 0 0.754167 0 0 0 0.4 0"/>
<feBlend mode="multiply" in2="BackgroundImageFix" result="effect1_dropShadow_499_1210"/>
<feBlend mode="normal" in="SourceGraphic" in2="effect1_dropShadow_499_1210" result="shape"/>
</filter>
<filter id="filter1_d_499_1210" x="91.7175" y="27.7109" width="31.0685" height="31.0685" filterUnits="userSpaceOnUse" color-interpolation-filters="sRGB">
<feFlood flood-opacity="0" result="BackgroundImageFix"/>
<feColorMatrix in="SourceAlpha" type="matrix" values="0 0 0 0 0 0 0 0 0 0 0 0 0 0 0 0 0 0 127 0" result="hardAlpha"/>
<feOffset/>
<feGaussianBlur stdDeviation="2"/>
<feComposite in2="hardAlpha" operator="out"/>
<feColorMatrix type="matrix" values="0 0 0 0 0.0745098 0 0 0 0 0.278431 0 0 0 0 0.294118 0 0 0 0.2 0"/>
<feBlend mode="normal" in2="BackgroundImageFix" result="effect1_dropShadow_499_1210"/>
<feBlend mode="normal" in="SourceGraphic" in2="effect1_dropShadow_499_1210" result="shape"/>
</filter>
<linearGradient id="paint0_linear_499_1210" x1="80.0067" y1="76.2566" x2="80.0067" y2="26.3037" gradientUnits="userSpaceOnUse">
<stop stop-color="#356490" stop-opacity="0"/>
<stop offset="1" stop-color="#355F90"/>
</linearGradient>
<linearGradient id="paint1_linear_499_1210" x1="61.0356" y1="0" x2="61.0356" y2="56.0847" gradientUnits="userSpaceOnUse">
<stop stop-color="#266192"/>
<stop offset="1" stop-color="#275C88"/>
</linearGradient>
<linearGradient id="paint2_linear_499_1210" x1="61.4627" y1="19.3574" x2="61.4627" y2="49.168" gradientUnits="userSpaceOnUse">
<stop stop-color="#193F63"/>
<stop offset="1" stop-color="#0D3D57"/>
</linearGradient>
<linearGradient id="paint3_linear_499_1210" x1="79.5546" y1="13.3438" x2="79.5546" y2="56.7863" gradientUnits="userSpaceOnUse">
<stop stop-color="#4DA6DE"/>
<stop offset="1" stop-color="#197DBF"/>
</linearGradient>
</defs>
</svg>
